<mxfile host="65bd71144e" pages="3">
    <diagram id="C5RBs43oDa-KdzZeNtuy" name="Page-1">
        <mxGraphModel dx="803" dy="-1049" grid="1" gridSize="10" guides="1" tooltips="1" connect="1" arrows="1" fold="1" page="1" pageScale="1" pageWidth="1169" pageHeight="1654" math="0" shadow="0">
            <root>
                <mxCell id="WIyWlLk6GJQsqaUBKTNV-0"/>
                <mxCell id="WIyWlLk6GJQsqaUBKTNV-1" parent="WIyWlLk6GJQsqaUBKTNV-0"/>
                <mxCell id="vyRCuT5CazXDz3R7OgMO-26" value="" style="edgeStyle=orthogonalEdgeStyle;rounded=0;orthogonalLoop=1;jettySize=auto;html=1;startArrow=none;startFill=0;endArrow=none;endFill=0;strokeWidth=2;" parent="WIyWlLk6GJQsqaUBKTNV-1" source="vyRCuT5CazXDz3R7OgMO-27" edge="1">
                    <mxGeometry relative="1" as="geometry">
                        <mxPoint x="530" y="1880" as="targetPoint"/>
                    </mxGeometry>
                </mxCell>
                <mxCell id="vyRCuT5CazXDz3R7OgMO-27" value="Б" style="verticalLabelPosition=middle;verticalAlign=middle;html=1;shape=mxgraph.flowchart.on-page_reference;rounded=0;labelPosition=center;align=center;strokeWidth=2;" parent="WIyWlLk6GJQsqaUBKTNV-1" vertex="1">
                    <mxGeometry x="500" y="1740" width="60" height="60" as="geometry"/>
                </mxCell>
                <mxCell id="vyRCuT5CazXDz3R7OgMO-28" style="edgeStyle=orthogonalEdgeStyle;rounded=0;orthogonalLoop=1;jettySize=auto;html=1;exitX=0.5;exitY=1;exitDx=0;exitDy=0;entryX=0.5;entryY=0;entryDx=0;entryDy=0;startArrow=none;startFill=0;endArrow=none;endFill=0;strokeWidth=2;" parent="WIyWlLk6GJQsqaUBKTNV-1" source="vyRCuT5CazXDz3R7OgMO-29" target="vyRCuT5CazXDz3R7OgMO-32" edge="1">
                    <mxGeometry relative="1" as="geometry"/>
                </mxCell>
                <mxCell id="vyRCuT5CazXDz3R7OgMO-29" value="&lt;font style=&quot;font-size: 12px&quot;&gt;Декремент счетчика времени до отключения моторчика дисковода&lt;/font&gt;" style="whiteSpace=wrap;html=1;rounded=0;arcSize=6;strokeWidth=2;" parent="WIyWlLk6GJQsqaUBKTNV-1" vertex="1">
                    <mxGeometry x="390" y="1860" width="280" height="80" as="geometry"/>
                </mxCell>
                <mxCell id="vyRCuT5CazXDz3R7OgMO-30" style="edgeStyle=orthogonalEdgeStyle;rounded=0;orthogonalLoop=1;jettySize=auto;html=1;exitX=1;exitY=0.5;exitDx=0;exitDy=0;startArrow=none;startFill=0;endArrow=classic;endFill=1;entryX=0.5;entryY=0;entryDx=0;entryDy=0;strokeWidth=2;" parent="WIyWlLk6GJQsqaUBKTNV-1" source="vyRCuT5CazXDz3R7OgMO-32" edge="1">
                    <mxGeometry relative="1" as="geometry">
                        <mxPoint x="770" y="2100" as="targetPoint"/>
                        <Array as="points">
                            <mxPoint x="770" y="2020"/>
                        </Array>
                    </mxGeometry>
                </mxCell>
                <mxCell id="vyRCuT5CazXDz3R7OgMO-31" style="edgeStyle=orthogonalEdgeStyle;rounded=0;orthogonalLoop=1;jettySize=auto;html=1;exitX=0;exitY=0.5;exitDx=0;exitDy=0;startArrow=none;startFill=0;endArrow=classic;endFill=1;entryX=0.5;entryY=0;entryDx=0;entryDy=0;strokeWidth=2;" parent="WIyWlLk6GJQsqaUBKTNV-1" source="vyRCuT5CazXDz3R7OgMO-32" target="vyRCuT5CazXDz3R7OgMO-37" edge="1">
                    <mxGeometry relative="1" as="geometry">
                        <mxPoint x="270" y="2350" as="targetPoint"/>
                        <Array as="points">
                            <mxPoint x="270" y="2020"/>
                            <mxPoint x="270" y="2340"/>
                            <mxPoint x="530" y="2340"/>
                        </Array>
                    </mxGeometry>
                </mxCell>
                <mxCell id="vyRCuT5CazXDz3R7OgMO-32" value="&lt;font style=&quot;font-size: 12px&quot;&gt;Счетчик времени до отключения&lt;br&gt;моторчика дисковода = 0?&lt;br&gt;&lt;/font&gt;" style="rhombus;whiteSpace=wrap;html=1;rounded=0;arcSize=6;strokeWidth=2;" parent="WIyWlLk6GJQsqaUBKTNV-1" vertex="1">
                    <mxGeometry x="390" y="1980" width="280" height="80" as="geometry"/>
                </mxCell>
                <mxCell id="vyRCuT5CazXDz3R7OgMO-33" style="edgeStyle=orthogonalEdgeStyle;rounded=0;orthogonalLoop=1;jettySize=auto;html=1;exitX=0.5;exitY=1;exitDx=0;exitDy=0;entryX=0.5;entryY=0;entryDx=0;entryDy=0;startArrow=none;startFill=0;endArrow=none;endFill=0;strokeWidth=2;" parent="WIyWlLk6GJQsqaUBKTNV-1" edge="1">
                    <mxGeometry relative="1" as="geometry">
                        <mxPoint x="770" y="2180" as="sourcePoint"/>
                        <mxPoint x="770" y="2220" as="targetPoint"/>
                    </mxGeometry>
                </mxCell>
                <mxCell id="vyRCuT5CazXDz3R7OgMO-34" style="edgeStyle=orthogonalEdgeStyle;rounded=0;orthogonalLoop=1;jettySize=auto;html=1;exitX=0.5;exitY=1;exitDx=0;exitDy=0;startArrow=none;startFill=0;endArrow=none;endFill=0;strokeWidth=2;" parent="WIyWlLk6GJQsqaUBKTNV-1" edge="1">
                    <mxGeometry relative="1" as="geometry">
                        <mxPoint x="530" y="2340" as="targetPoint"/>
                        <Array as="points">
                            <mxPoint x="770" y="2340"/>
                        </Array>
                        <mxPoint x="770" y="2300" as="sourcePoint"/>
                    </mxGeometry>
                </mxCell>
                <mxCell id="vyRCuT5CazXDz3R7OgMO-35" style="edgeStyle=orthogonalEdgeStyle;rounded=0;orthogonalLoop=1;jettySize=auto;html=1;exitX=1;exitY=0.5;exitDx=0;exitDy=0;startArrow=none;startFill=0;endArrow=classic;endFill=1;strokeWidth=2;" parent="WIyWlLk6GJQsqaUBKTNV-1" source="vyRCuT5CazXDz3R7OgMO-37" edge="1">
                    <mxGeometry relative="1" as="geometry">
                        <mxPoint x="770" y="2500" as="targetPoint"/>
                        <Array as="points">
                            <mxPoint x="770" y="2420"/>
                            <mxPoint x="770" y="2500"/>
                        </Array>
                    </mxGeometry>
                </mxCell>
                <mxCell id="vyRCuT5CazXDz3R7OgMO-36" style="edgeStyle=orthogonalEdgeStyle;rounded=0;orthogonalLoop=1;jettySize=auto;html=1;exitX=0;exitY=0.5;exitDx=0;exitDy=0;startArrow=none;startFill=0;endArrow=classic;endFill=1;strokeWidth=2;" parent="WIyWlLk6GJQsqaUBKTNV-1" source="vyRCuT5CazXDz3R7OgMO-37" edge="1">
                    <mxGeometry relative="1" as="geometry">
                        <mxPoint x="290" y="2500" as="targetPoint"/>
                    </mxGeometry>
                </mxCell>
                <mxCell id="vyRCuT5CazXDz3R7OgMO-37" value="Флаг четности PF установлен в &lt;br&gt;0040:0314?" style="rhombus;whiteSpace=wrap;html=1;rounded=0;arcSize=6;strokeWidth=2;" parent="WIyWlLk6GJQsqaUBKTNV-1" vertex="1">
                    <mxGeometry x="390" y="2380" width="280" height="80" as="geometry"/>
                </mxCell>
                <mxCell id="vyRCuT5CazXDz3R7OgMO-38" style="edgeStyle=orthogonalEdgeStyle;rounded=0;orthogonalLoop=1;jettySize=auto;html=1;exitX=0.5;exitY=1;exitDx=0;exitDy=0;entryX=0.5;entryY=0;entryDx=0;entryDy=0;startArrow=none;startFill=0;endArrow=classic;endFill=1;strokeWidth=2;" parent="WIyWlLk6GJQsqaUBKTNV-1" source="vyRCuT5CazXDz3R7OgMO-39" target="vyRCuT5CazXDz3R7OgMO-43" edge="1">
                    <mxGeometry relative="1" as="geometry"/>
                </mxCell>
                <mxCell id="vyRCuT5CazXDz3R7OgMO-39" value="&lt;span&gt;Косвенный вызов прерывания&lt;br&gt;1Ch&lt;br&gt;&lt;/span&gt;" style="whiteSpace=wrap;html=1;rounded=0;arcSize=6;strokeWidth=2;" parent="WIyWlLk6GJQsqaUBKTNV-1" vertex="1">
                    <mxGeometry x="140" y="2501" width="280" height="80" as="geometry"/>
                </mxCell>
                <mxCell id="vyRCuT5CazXDz3R7OgMO-40" style="edgeStyle=orthogonalEdgeStyle;rounded=0;orthogonalLoop=1;jettySize=auto;html=1;exitX=0.5;exitY=1;exitDx=0;exitDy=0;entryX=0.5;entryY=0;entryDx=0;entryDy=0;startArrow=none;startFill=0;endArrow=classic;endFill=1;strokeWidth=2;" parent="WIyWlLk6GJQsqaUBKTNV-1" source="vyRCuT5CazXDz3R7OgMO-41" target="vyRCuT5CazXDz3R7OgMO-43" edge="1">
                    <mxGeometry relative="1" as="geometry"/>
                </mxCell>
                <mxCell id="vyRCuT5CazXDz3R7OgMO-41" value="&lt;font style=&quot;font-size: 12px&quot;&gt;Вызов прерывания&lt;br&gt;1Ch&lt;/font&gt;" style="verticalLabelPosition=middle;verticalAlign=middle;html=1;shape=process;whiteSpace=wrap;rounded=0;size=0.14;arcSize=6;labelPosition=center;align=center;strokeWidth=2;" parent="WIyWlLk6GJQsqaUBKTNV-1" vertex="1">
                    <mxGeometry x="630" y="2501" width="280" height="80" as="geometry"/>
                </mxCell>
                <mxCell id="vyRCuT5CazXDz3R7OgMO-42" style="edgeStyle=orthogonalEdgeStyle;rounded=0;orthogonalLoop=1;jettySize=auto;html=1;exitX=0.5;exitY=1;exitDx=0;exitDy=0;entryX=0.5;entryY=0;entryDx=0;entryDy=0;startArrow=none;startFill=0;endArrow=none;endFill=0;strokeWidth=2;" parent="WIyWlLk6GJQsqaUBKTNV-1" source="vyRCuT5CazXDz3R7OgMO-43" target="vyRCuT5CazXDz3R7OgMO-45" edge="1">
                    <mxGeometry relative="1" as="geometry"/>
                </mxCell>
                <mxCell id="vyRCuT5CazXDz3R7OgMO-43" value="&lt;span&gt;Вызов процедуры&lt;br&gt;sub_1&lt;br&gt;&lt;/span&gt;" style="verticalLabelPosition=middle;verticalAlign=middle;html=1;shape=process;whiteSpace=wrap;rounded=0;size=0.14;arcSize=6;labelPosition=center;align=center;strokeWidth=2;" parent="WIyWlLk6GJQsqaUBKTNV-1" vertex="1">
                    <mxGeometry x="390" y="2660" width="280" height="80" as="geometry"/>
                </mxCell>
                <mxCell id="vyRCuT5CazXDz3R7OgMO-44" style="edgeStyle=orthogonalEdgeStyle;rounded=0;orthogonalLoop=1;jettySize=auto;html=1;exitX=0.5;exitY=1;exitDx=0;exitDy=0;entryX=0.5;entryY=0;entryDx=0;entryDy=0;startArrow=none;startFill=0;endArrow=none;endFill=0;strokeWidth=2;" parent="WIyWlLk6GJQsqaUBKTNV-1" source="vyRCuT5CazXDz3R7OgMO-45" target="vyRCuT5CazXDz3R7OgMO-47" edge="1">
                    <mxGeometry relative="1" as="geometry"/>
                </mxCell>
                <mxCell id="vyRCuT5CazXDz3R7OgMO-45" value="&lt;font style=&quot;font-size: 12px&quot;&gt;Сброс контроллера прерываний&lt;/font&gt;" style="whiteSpace=wrap;html=1;rounded=0;arcSize=6;strokeWidth=2;" parent="WIyWlLk6GJQsqaUBKTNV-1" vertex="1">
                    <mxGeometry x="390" y="2780" width="280" height="80" as="geometry"/>
                </mxCell>
                <mxCell id="vyRCuT5CazXDz3R7OgMO-46" style="edgeStyle=orthogonalEdgeStyle;rounded=0;orthogonalLoop=1;jettySize=auto;html=1;exitX=0.5;exitY=1;exitDx=0;exitDy=0;entryX=0.5;entryY=0;entryDx=0;entryDy=0;entryPerimeter=0;startArrow=none;startFill=0;endArrow=none;endFill=0;strokeWidth=2;" parent="WIyWlLk6GJQsqaUBKTNV-1" source="vyRCuT5CazXDz3R7OgMO-47" edge="1">
                    <mxGeometry relative="1" as="geometry">
                        <mxPoint x="530" y="3020" as="targetPoint"/>
                    </mxGeometry>
                </mxCell>
                <mxCell id="vyRCuT5CazXDz3R7OgMO-47" value="&lt;span&gt;Восстановление регистров&lt;br&gt;AX, DS, DX, ES&lt;br&gt;&lt;/span&gt;" style="whiteSpace=wrap;html=1;rounded=0;arcSize=6;strokeWidth=2;" parent="WIyWlLk6GJQsqaUBKTNV-1" vertex="1">
                    <mxGeometry x="390" y="2900" width="280" height="80" as="geometry"/>
                </mxCell>
                <mxCell id="vyRCuT5CazXDz3R7OgMO-49" value="&lt;font style=&quot;font-size: 12px&quot;&gt;Установка флага отключения моторчика дисковода&lt;/font&gt;" style="whiteSpace=wrap;html=1;rounded=0;arcSize=6;strokeWidth=2;" parent="WIyWlLk6GJQsqaUBKTNV-1" vertex="1">
                    <mxGeometry x="630" y="2100" width="280" height="80" as="geometry"/>
                </mxCell>
                <mxCell id="vyRCuT5CazXDz3R7OgMO-50" value="&lt;font style=&quot;font-size: 12px&quot;&gt;Отправка команды отключения 0Ch в порт дисковода (3F2h)&lt;/font&gt;" style="whiteSpace=wrap;html=1;rounded=0;arcSize=6;strokeWidth=2;" parent="WIyWlLk6GJQsqaUBKTNV-1" vertex="1">
                    <mxGeometry x="630" y="2220" width="280" height="80" as="geometry"/>
                </mxCell>
                <mxCell id="vyRCuT5CazXDz3R7OgMO-51" value="Да" style="text;html=1;align=center;verticalAlign=middle;resizable=0;points=[];autosize=1;strokeColor=none;" parent="WIyWlLk6GJQsqaUBKTNV-1" vertex="1">
                    <mxGeometry x="665" y="2390" width="30" height="20" as="geometry"/>
                </mxCell>
                <mxCell id="9" value="Конец" style="html=1;dashed=0;whitespace=wrap;shape=mxgraph.dfd.start;strokeWidth=2;rotation=0;" vertex="1" parent="WIyWlLk6GJQsqaUBKTNV-1">
                    <mxGeometry x="390" y="3020" width="280" height="80" as="geometry"/>
                </mxCell>
            </root>
        </mxGraphModel>
    </diagram>
    <diagram id="4PLdLxgveLM03PC5nY2m" name="Page-3">
        <mxGraphModel dx="1112" dy="771" grid="1" gridSize="10" guides="1" tooltips="1" connect="1" arrows="1" fold="1" page="1" pageScale="1" pageWidth="1169" pageHeight="1654" math="0" shadow="0">
            <root>
                <mxCell id="PTrQx92x1PSHm9LetNAU-0"/>
                <mxCell id="PTrQx92x1PSHm9LetNAU-1" parent="PTrQx92x1PSHm9LetNAU-0"/>
            </root>
        </mxGraphModel>
    </diagram>
    <diagram id="SMo9lqOiyiK44Y0W1xno" name="Page-2">
        <mxGraphModel dx="2281" dy="771" grid="1" gridSize="10" guides="1" tooltips="1" connect="1" arrows="1" fold="1" page="1" pageScale="1" pageWidth="1169" pageHeight="1654" math="0" shadow="0">
            <root>
                <mxCell id="3hFEeD8surCcH0dSWmG2-0"/>
                <mxCell id="3hFEeD8surCcH0dSWmG2-1" parent="3hFEeD8surCcH0dSWmG2-0"/>
                <mxCell id="l-EBOWrs5vo055zlGGoX-1" style="edgeStyle=orthogonalEdgeStyle;rounded=0;orthogonalLoop=1;jettySize=auto;html=1;exitX=0.5;exitY=1;exitDx=0;exitDy=0;exitPerimeter=0;entryX=0.5;entryY=0;entryDx=0;entryDy=0;startArrow=none;startFill=0;endArrow=none;endFill=0;strokeWidth=2;" parent="3hFEeD8surCcH0dSWmG2-1" source="3hFEeD8surCcH0dSWmG2-2" target="T3StZe7bPnIQIUZtU70U-0" edge="1">
                    <mxGeometry relative="1" as="geometry"/>
                </mxCell>
                <mxCell id="3hFEeD8surCcH0dSWmG2-2" value="&lt;font style=&quot;font-size: 12px&quot;&gt;Начало&lt;/font&gt;" style="strokeWidth=2;html=1;shape=mxgraph.flowchart.terminator;whiteSpace=wrap;" parent="3hFEeD8surCcH0dSWmG2-1" vertex="1">
                    <mxGeometry x="-760" y="80" width="280" height="80" as="geometry"/>
                </mxCell>
                <mxCell id="l-EBOWrs5vo055zlGGoX-2" style="edgeStyle=orthogonalEdgeStyle;rounded=0;orthogonalLoop=1;jettySize=auto;html=1;exitX=0.5;exitY=1;exitDx=0;exitDy=0;entryX=0.5;entryY=0;entryDx=0;entryDy=0;startArrow=none;startFill=0;endArrow=none;endFill=0;strokeWidth=2;" parent="3hFEeD8surCcH0dSWmG2-1" source="T3StZe7bPnIQIUZtU70U-0" target="T3StZe7bPnIQIUZtU70U-1" edge="1">
                    <mxGeometry relative="1" as="geometry"/>
                </mxCell>
                <mxCell id="T3StZe7bPnIQIUZtU70U-0" value="&lt;span&gt;Сохранение регистров&lt;br&gt;DS, AX&lt;br&gt;&lt;/span&gt;" style="whiteSpace=wrap;html=1;rounded=0;arcSize=6;strokeWidth=2;" parent="3hFEeD8surCcH0dSWmG2-1" vertex="1">
                    <mxGeometry x="-760" y="200" width="280" height="80" as="geometry"/>
                </mxCell>
                <mxCell id="l-EBOWrs5vo055zlGGoX-3" style="edgeStyle=orthogonalEdgeStyle;rounded=0;orthogonalLoop=1;jettySize=auto;html=1;exitX=0.5;exitY=1;exitDx=0;exitDy=0;entryX=0.5;entryY=0;entryDx=0;entryDy=0;startArrow=none;startFill=0;endArrow=none;endFill=0;strokeWidth=2;" parent="3hFEeD8surCcH0dSWmG2-1" source="T3StZe7bPnIQIUZtU70U-1" target="l-EBOWrs5vo055zlGGoX-0" edge="1">
                    <mxGeometry relative="1" as="geometry"/>
                </mxCell>
                <mxCell id="T3StZe7bPnIQIUZtU70U-1" value="&lt;span&gt;Загрузка младшего байта регистра&lt;br&gt;EFLAGS в AH&lt;br&gt;&lt;/span&gt;" style="whiteSpace=wrap;html=1;rounded=0;arcSize=6;strokeWidth=2;" parent="3hFEeD8surCcH0dSWmG2-1" vertex="1">
                    <mxGeometry x="-760" y="440" width="280" height="80" as="geometry"/>
                </mxCell>
                <mxCell id="l-EBOWrs5vo055zlGGoX-5" style="edgeStyle=orthogonalEdgeStyle;rounded=0;orthogonalLoop=1;jettySize=auto;html=1;exitX=1;exitY=0.5;exitDx=0;exitDy=0;entryX=0.5;entryY=0;entryDx=0;entryDy=0;startArrow=none;startFill=0;endArrow=classic;endFill=1;strokeWidth=2;" parent="3hFEeD8surCcH0dSWmG2-1" source="l-EBOWrs5vo055zlGGoX-0" target="l-EBOWrs5vo055zlGGoX-4" edge="1">
                    <mxGeometry relative="1" as="geometry"/>
                </mxCell>
                <mxCell id="l-EBOWrs5vo055zlGGoX-7" style="edgeStyle=orthogonalEdgeStyle;rounded=0;orthogonalLoop=1;jettySize=auto;html=1;exitX=0;exitY=0.5;exitDx=0;exitDy=0;entryX=0.5;entryY=0;entryDx=0;entryDy=0;startArrow=none;startFill=0;endArrow=classic;endFill=1;strokeWidth=2;" parent="3hFEeD8surCcH0dSWmG2-1" source="l-EBOWrs5vo055zlGGoX-0" target="l-EBOWrs5vo055zlGGoX-6" edge="1">
                    <mxGeometry relative="1" as="geometry"/>
                </mxCell>
                <mxCell id="l-EBOWrs5vo055zlGGoX-0" value="&lt;font style=&quot;font-size: 12px&quot;&gt;Установлены ли DF и старший&lt;br&gt;&amp;nbsp;бит IOPL в 0040:0314?&lt;/font&gt;" style="rhombus;whiteSpace=wrap;html=1;rounded=0;arcSize=6;strokeWidth=2;" parent="3hFEeD8surCcH0dSWmG2-1" vertex="1">
                    <mxGeometry x="-760" y="560" width="280" height="80" as="geometry"/>
                </mxCell>
                <mxCell id="l-EBOWrs5vo055zlGGoX-12" style="edgeStyle=orthogonalEdgeStyle;rounded=0;orthogonalLoop=1;jettySize=auto;html=1;exitX=0.5;exitY=1;exitDx=0;exitDy=0;startArrow=none;startFill=0;endArrow=classic;endFill=1;entryX=0.5;entryY=0;entryDx=0;entryDy=0;strokeWidth=2;" parent="3hFEeD8surCcH0dSWmG2-1" source="l-EBOWrs5vo055zlGGoX-4" target="l-EBOWrs5vo055zlGGoX-8" edge="1">
                    <mxGeometry relative="1" as="geometry">
                        <mxPoint x="-620" y="840" as="targetPoint"/>
                    </mxGeometry>
                </mxCell>
                <mxCell id="l-EBOWrs5vo055zlGGoX-4" value="&lt;font style=&quot;font-size: 12px&quot;&gt;Сброс флага прерываний IF&lt;/font&gt;" style="whiteSpace=wrap;html=1;rounded=0;arcSize=6;strokeWidth=2;" parent="3hFEeD8surCcH0dSWmG2-1" vertex="1">
                    <mxGeometry x="-520" y="680" width="280" height="80" as="geometry"/>
                </mxCell>
                <mxCell id="l-EBOWrs5vo055zlGGoX-11" style="edgeStyle=orthogonalEdgeStyle;rounded=0;orthogonalLoop=1;jettySize=auto;html=1;exitX=0.5;exitY=1;exitDx=0;exitDy=0;startArrow=none;startFill=0;endArrow=classic;endFill=1;strokeWidth=2;" parent="3hFEeD8surCcH0dSWmG2-1" source="l-EBOWrs5vo055zlGGoX-6" target="l-EBOWrs5vo055zlGGoX-8" edge="1">
                    <mxGeometry relative="1" as="geometry"/>
                </mxCell>
                <mxCell id="l-EBOWrs5vo055zlGGoX-6" value="&lt;span&gt;Запрет маскируемых прерываний инструкцией&lt;br&gt;CLI&lt;br&gt;&lt;/span&gt;" style="whiteSpace=wrap;html=1;rounded=0;arcSize=6;strokeWidth=2;" parent="3hFEeD8surCcH0dSWmG2-1" vertex="1">
                    <mxGeometry x="-1000" y="680" width="280" height="80" as="geometry"/>
                </mxCell>
                <mxCell id="l-EBOWrs5vo055zlGGoX-13" style="edgeStyle=orthogonalEdgeStyle;rounded=0;orthogonalLoop=1;jettySize=auto;html=1;exitX=0.5;exitY=1;exitDx=0;exitDy=0;startArrow=none;startFill=0;endArrow=none;endFill=0;strokeWidth=2;" parent="3hFEeD8surCcH0dSWmG2-1" source="l-EBOWrs5vo055zlGGoX-8" target="l-EBOWrs5vo055zlGGoX-9" edge="1">
                    <mxGeometry relative="1" as="geometry"/>
                </mxCell>
                <mxCell id="l-EBOWrs5vo055zlGGoX-8" value="&lt;font style=&quot;font-size: 12px&quot;&gt;Загрузка AH в младший байт регистра EFLAGS&lt;/font&gt;" style="whiteSpace=wrap;html=1;rounded=0;arcSize=6;strokeWidth=2;" parent="3hFEeD8surCcH0dSWmG2-1" vertex="1">
                    <mxGeometry x="-760" y="840" width="280" height="80" as="geometry"/>
                </mxCell>
                <mxCell id="l-EBOWrs5vo055zlGGoX-14" style="edgeStyle=orthogonalEdgeStyle;rounded=0;orthogonalLoop=1;jettySize=auto;html=1;exitX=0.5;exitY=1;exitDx=0;exitDy=0;entryX=0.5;entryY=0;entryDx=0;entryDy=0;entryPerimeter=0;startArrow=none;startFill=0;endArrow=none;endFill=0;strokeWidth=2;" parent="3hFEeD8surCcH0dSWmG2-1" source="l-EBOWrs5vo055zlGGoX-9" target="l-EBOWrs5vo055zlGGoX-10" edge="1">
                    <mxGeometry relative="1" as="geometry"/>
                </mxCell>
                <mxCell id="l-EBOWrs5vo055zlGGoX-9" value="&lt;font style=&quot;font-size: 12px&quot;&gt;Восстановление регистров AX, DS&lt;/font&gt;" style="whiteSpace=wrap;html=1;rounded=0;arcSize=6;strokeWidth=2;" parent="3hFEeD8surCcH0dSWmG2-1" vertex="1">
                    <mxGeometry x="-760" y="960" width="280" height="80" as="geometry"/>
                </mxCell>
                <mxCell id="l-EBOWrs5vo055zlGGoX-10" value="&lt;font style=&quot;font-size: 12px&quot;&gt;Конец&lt;/font&gt;" style="strokeWidth=2;html=1;shape=mxgraph.flowchart.terminator;whiteSpace=wrap;" parent="3hFEeD8surCcH0dSWmG2-1" vertex="1">
                    <mxGeometry x="-760" y="1080" width="280" height="80" as="geometry"/>
                </mxCell>
                <mxCell id="hmYaRsFD88xVEkdwvIxV-0" value="Да" style="text;html=1;align=center;verticalAlign=middle;resizable=0;points=[];autosize=1;strokeColor=none;fillColor=none;strokeWidth=2;" parent="3hFEeD8surCcH0dSWmG2-1" vertex="1">
                    <mxGeometry x="-480" y="570" width="30" height="20" as="geometry"/>
                </mxCell>
                <mxCell id="hmYaRsFD88xVEkdwvIxV-1" value="&lt;span&gt;Загрузка в DS адреса&lt;br&gt;0040:0000&lt;br&gt;&lt;/span&gt;" style="whiteSpace=wrap;html=1;rounded=0;arcSize=6;strokeWidth=2;" parent="3hFEeD8surCcH0dSWmG2-1" vertex="1">
                    <mxGeometry x="-760" y="320" width="280" height="80" as="geometry"/>
                </mxCell>
            </root>
        </mxGraphModel>
    </diagram>
    <diagram id="pvptHs4O_jrLpWgV0axq" name="Страница 4">
        <mxGraphModel dx="1112" dy="771" grid="1" gridSize="10" guides="1" tooltips="1" connect="1" arrows="1" fold="1" page="1" pageScale="1" pageWidth="827" pageHeight="1169" math="0" shadow="0">
            <root>
                <mxCell id="eQSLLLaja5Yvgr1dc8NQ-0"/>
                <mxCell id="eQSLLLaja5Yvgr1dc8NQ-1" parent="eQSLLLaja5Yvgr1dc8NQ-0"/>
                <mxCell id="eQSLLLaja5Yvgr1dc8NQ-2" value="Б" style="verticalLabelPosition=middle;verticalAlign=middle;html=1;shape=mxgraph.flowchart.on-page_reference;rounded=0;labelPosition=center;align=center;strokeWidth=2;" parent="eQSLLLaja5Yvgr1dc8NQ-1" vertex="1">
                    <mxGeometry x="270" y="1560" width="60" height="60" as="geometry"/>
                </mxCell>
                <mxCell id="eQSLLLaja5Yvgr1dc8NQ-3" value="&lt;font style=&quot;font-size: 12px&quot;&gt;Да&lt;/font&gt;" style="edgeStyle=orthogonalEdgeStyle;rounded=0;orthogonalLoop=1;jettySize=auto;html=1;exitX=1;exitY=0.5;exitDx=0;exitDy=0;startArrow=none;startFill=0;endArrow=classic;endFill=1;strokeWidth=2;" parent="eQSLLLaja5Yvgr1dc8NQ-1" source="eQSLLLaja5Yvgr1dc8NQ-5" edge="1">
                    <mxGeometry x="-0.6364" y="20" relative="1" as="geometry">
                        <mxPoint x="540" y="1000" as="targetPoint"/>
                        <mxPoint as="offset"/>
                    </mxGeometry>
                </mxCell>
                <mxCell id="eQSLLLaja5Yvgr1dc8NQ-4" style="edgeStyle=orthogonalEdgeStyle;rounded=0;orthogonalLoop=1;jettySize=auto;html=1;exitX=0;exitY=0.5;exitDx=0;exitDy=0;startArrow=none;startFill=0;endArrow=none;endFill=0;strokeWidth=2;" parent="eQSLLLaja5Yvgr1dc8NQ-1" source="eQSLLLaja5Yvgr1dc8NQ-5" edge="1">
                    <mxGeometry relative="1" as="geometry">
                        <mxPoint x="540" y="1520" as="targetPoint"/>
                        <Array as="points">
                            <mxPoint x="60" y="880"/>
                            <mxPoint x="60" y="1520"/>
                            <mxPoint x="540" y="1520"/>
                        </Array>
                    </mxGeometry>
                </mxCell>
                <mxCell id="eQSLLLaja5Yvgr1dc8NQ-5" value="&lt;font&gt;&lt;font style=&quot;font-size: 12px&quot;&gt;2 старших байта счетчика = 24?&lt;/font&gt;&lt;br&gt;&lt;/font&gt;" style="rhombus;whiteSpace=wrap;html=1;rounded=0;arcSize=6;strokeWidth=2;" parent="eQSLLLaja5Yvgr1dc8NQ-1" vertex="1">
                    <mxGeometry x="160" y="840" width="280" height="80" as="geometry"/>
                </mxCell>
                <mxCell id="eQSLLLaja5Yvgr1dc8NQ-6" value="&lt;font style=&quot;font-size: 12px&quot;&gt;Да&lt;/font&gt;" style="edgeStyle=orthogonalEdgeStyle;rounded=0;orthogonalLoop=1;jettySize=auto;html=1;exitX=1;exitY=0.5;exitDx=0;exitDy=0;startArrow=none;startFill=0;endArrow=classic;endFill=1;entryX=0.5;entryY=0;entryDx=0;entryDy=0;strokeWidth=2;" parent="eQSLLLaja5Yvgr1dc8NQ-1" source="eQSLLLaja5Yvgr1dc8NQ-8" target="eQSLLLaja5Yvgr1dc8NQ-10" edge="1">
                    <mxGeometry x="-0.8182" y="20" relative="1" as="geometry">
                        <mxPoint x="780" y="1160" as="targetPoint"/>
                        <mxPoint as="offset"/>
                    </mxGeometry>
                </mxCell>
                <mxCell id="eQSLLLaja5Yvgr1dc8NQ-7" style="edgeStyle=orthogonalEdgeStyle;rounded=0;orthogonalLoop=1;jettySize=auto;html=1;exitX=0;exitY=0.5;exitDx=0;exitDy=0;startArrow=none;startFill=0;endArrow=none;endFill=0;strokeWidth=2;" parent="eQSLLLaja5Yvgr1dc8NQ-1" source="eQSLLLaja5Yvgr1dc8NQ-8" edge="1">
                    <mxGeometry relative="1" as="geometry">
                        <mxPoint x="540" y="1500" as="targetPoint"/>
                        <Array as="points">
                            <mxPoint x="300" y="1040"/>
                            <mxPoint x="300" y="1480"/>
                            <mxPoint x="540" y="1480"/>
                        </Array>
                    </mxGeometry>
                </mxCell>
                <mxCell id="eQSLLLaja5Yvgr1dc8NQ-8" value="&lt;font style=&quot;font-size: 12px&quot;&gt;2 младших байта счетчика = 176?&lt;/font&gt;" style="rhombus;whiteSpace=wrap;html=1;rounded=0;arcSize=6;strokeWidth=2;" parent="eQSLLLaja5Yvgr1dc8NQ-1" vertex="1">
                    <mxGeometry x="400" y="1000" width="280" height="80" as="geometry"/>
                </mxCell>
                <mxCell id="eQSLLLaja5Yvgr1dc8NQ-9" style="edgeStyle=orthogonalEdgeStyle;rounded=0;orthogonalLoop=1;jettySize=auto;html=1;exitX=0.5;exitY=1;exitDx=0;exitDy=0;entryX=0.5;entryY=0;entryDx=0;entryDy=0;startArrow=none;startFill=0;endArrow=none;endFill=0;strokeWidth=2;" parent="eQSLLLaja5Yvgr1dc8NQ-1" source="eQSLLLaja5Yvgr1dc8NQ-10" target="eQSLLLaja5Yvgr1dc8NQ-12" edge="1">
                    <mxGeometry relative="1" as="geometry"/>
                </mxCell>
                <mxCell id="eQSLLLaja5Yvgr1dc8NQ-10" value="&lt;font style=&quot;font-size: 12px&quot;&gt;Обнуление 2 старших байта счетчика реального времени&lt;/font&gt;" style="whiteSpace=wrap;html=1;rounded=0;arcSize=6;strokeWidth=2;" parent="eQSLLLaja5Yvgr1dc8NQ-1" vertex="1">
                    <mxGeometry x="680" y="1120" width="200" height="80" as="geometry"/>
                </mxCell>
                <mxCell id="eQSLLLaja5Yvgr1dc8NQ-11" style="edgeStyle=orthogonalEdgeStyle;rounded=0;orthogonalLoop=1;jettySize=auto;html=1;exitX=0.5;exitY=1;exitDx=0;exitDy=0;entryX=0.5;entryY=0;entryDx=0;entryDy=0;startArrow=none;startFill=0;endArrow=none;endFill=0;strokeWidth=2;" parent="eQSLLLaja5Yvgr1dc8NQ-1" source="eQSLLLaja5Yvgr1dc8NQ-12" target="eQSLLLaja5Yvgr1dc8NQ-14" edge="1">
                    <mxGeometry relative="1" as="geometry"/>
                </mxCell>
                <mxCell id="eQSLLLaja5Yvgr1dc8NQ-12" value="&lt;font style=&quot;font-size: 12px&quot;&gt;Обнуление 2 младших байта счетчика реального времени&lt;/font&gt;" style="whiteSpace=wrap;html=1;rounded=0;arcSize=6;strokeWidth=2;" parent="eQSLLLaja5Yvgr1dc8NQ-1" vertex="1">
                    <mxGeometry x="680" y="1240" width="200" height="80" as="geometry"/>
                </mxCell>
                <mxCell id="eQSLLLaja5Yvgr1dc8NQ-13" style="edgeStyle=orthogonalEdgeStyle;rounded=0;orthogonalLoop=1;jettySize=auto;html=1;exitX=0.5;exitY=1;exitDx=0;exitDy=0;entryX=0.5;entryY=0;entryDx=0;entryDy=0;entryPerimeter=0;startArrow=none;startFill=0;endArrow=classic;endFill=1;strokeWidth=2;" parent="eQSLLLaja5Yvgr1dc8NQ-1" source="eQSLLLaja5Yvgr1dc8NQ-14" target="eQSLLLaja5Yvgr1dc8NQ-2" edge="1">
                    <mxGeometry relative="1" as="geometry">
                        <Array as="points">
                            <mxPoint x="780" y="1480"/>
                            <mxPoint x="540" y="1480"/>
                            <mxPoint x="540" y="1520"/>
                            <mxPoint x="300" y="1520"/>
                        </Array>
                    </mxGeometry>
                </mxCell>
                <mxCell id="eQSLLLaja5Yvgr1dc8NQ-14" value="&lt;font style=&quot;font-size: 12px&quot;&gt;Установка флага прошедших суток&lt;/font&gt;" style="whiteSpace=wrap;html=1;rounded=0;arcSize=6;strokeWidth=2;" parent="eQSLLLaja5Yvgr1dc8NQ-1" vertex="1">
                    <mxGeometry x="680" y="1360" width="200" height="80" as="geometry"/>
                </mxCell>
                <mxCell id="eQSLLLaja5Yvgr1dc8NQ-30" style="edgeStyle=orthogonalEdgeStyle;rounded=0;orthogonalLoop=1;jettySize=auto;html=1;exitX=0.5;exitY=1;exitDx=0;exitDy=0;exitPerimeter=0;entryX=0.5;entryY=0;entryDx=0;entryDy=0;endArrow=none;endFill=0;strokeWidth=2;" parent="eQSLLLaja5Yvgr1dc8NQ-1" source="eQSLLLaja5Yvgr1dc8NQ-29" target="eQSLLLaja5Yvgr1dc8NQ-5" edge="1">
                    <mxGeometry relative="1" as="geometry"/>
                </mxCell>
                <mxCell id="eQSLLLaja5Yvgr1dc8NQ-29" value="А" style="verticalLabelPosition=middle;verticalAlign=middle;html=1;shape=mxgraph.flowchart.on-page_reference;rounded=0;labelPosition=center;align=center;strokeWidth=2;" parent="eQSLLLaja5Yvgr1dc8NQ-1" vertex="1">
                    <mxGeometry x="270" y="730" width="60" height="60" as="geometry"/>
                </mxCell>
            </root>
        </mxGraphModel>
    </diagram>
</mxfile>